<svg xmlns="http://www.w3.org/2000/svg" viewBox="0 0 64 64">
  <defs>
    <linearGradient id="skin" x1="0" y1="1" x2="1" y2="0">
      <stop offset="0" stop-color="#F2A33A"/>
      <stop offset="0.45" stop-color="#E0552F"/>
      <stop offset="0.75" stop-color="#B3135C"/>
      <stop offset="1" stop-color="#E0552F"/>
    </linearGradient>
  </defs>
  <rect width="64" height="64" rx="14" fill="#F4EBDF"/>
  <!-- raly: a ruffled membrane with a cobalt spine and pale spots -->
  <path d="M8 46 C11 40 13 42 16 35 C19 37 22 30 25 29 C27 31 31 23 35 23 C37 25 41 17 45 18 C47 20 52 13 57 14 C55 19 57 22 52 27 C53 30 47 33 45 37 C44 40 38 41 35 44 C33 47 27 46 24 49 C21 51 15 49 8 46 Z" fill="url(#skin)"/>
  <path d="M13 44 C22 42 30 36 37 31 C43 27 49 22 54 17 C48 25 42 31 36 36 C29 41 21 45 13 44 Z" fill="#1F2F9E"/>
  <g fill="#FAF5EE">
    <circle cx="22" cy="41" r="1.6"/>
    <circle cx="30" cy="36" r="1.6"/>
    <circle cx="38" cy="30" r="1.6"/>
    <circle cx="46" cy="24" r="1.4"/>
    <circle cx="27" cy="44" r="1.2"/>
    <circle cx="42" cy="33" r="1.2"/>
  </g>
</svg>
